<svg width="18" height="18" viewBox="0 0 18 18" fill="none" xmlns="http://www.w3.org/2000/svg">
<g clip-path="url(#clip0_968_41)">
<path d="M9 18C13.9706 18 18 13.9706 18 9C18 4.02944 13.9706 0 9 0C4.02944 0 0 4.02944 0 9C0 13.9706 4.02944 18 9 18Z" fill="#1769FF"/>
<path d="M6.35834 4.92188C6.74642 4.92188 7.10066 4.95644 7.42106 5.02484C7.74146 5.09324 8.01506 5.20556 8.2433 5.3618C8.47154 5.51804 8.64866 5.7254 8.77466 5.9846C8.90066 6.2438 8.9633 6.56348 8.9633 6.94436C8.9633 7.35548 8.8697 7.6982 8.68322 7.97252C8.49674 8.24684 8.22026 8.47148 7.85522 8.64644C8.35778 8.79116 8.7329 9.0446 8.98058 9.40604C9.22826 9.76748 9.3521 10.2038 9.3521 10.7143C9.3521 11.1254 9.27218 11.4818 9.11234 11.7828C8.9525 12.0837 8.73722 12.3292 8.4665 12.5193C8.19578 12.7101 7.88762 12.8505 7.5413 12.942C7.19282 13.0334 6.83354 13.0795 6.47354 13.0788H2.52002V4.92188H6.35834ZM6.1301 8.22308C6.44978 8.22308 6.71258 8.14676 6.9185 7.99484C7.12442 7.8422 7.22738 7.59524 7.22666 7.25252C7.22666 7.06244 7.1921 6.9062 7.1237 6.78452C7.0553 6.66284 6.96386 6.56708 6.84938 6.49868C6.7349 6.43028 6.60386 6.38276 6.45554 6.35612C6.3029 6.32948 6.1481 6.3158 5.99258 6.31652H4.31426V8.22452L6.1301 8.22308ZM6.23306 11.6841C6.40226 11.6848 6.57074 11.6676 6.73562 11.633C6.89546 11.5984 7.03658 11.5416 7.15826 11.4616C7.27994 11.3817 7.37714 11.273 7.44986 11.1362C7.52186 10.9994 7.55858 10.8237 7.55858 10.6106C7.55858 10.1923 7.4405 9.89276 7.20434 9.7142C6.96818 9.53492 6.6557 9.44564 6.26762 9.44564H4.31426V11.6848L6.23306 11.6841ZM11.6086 11.5128C11.8519 11.7489 12.2026 11.867 12.6598 11.867C12.9874 11.867 13.2689 11.7849 13.5051 11.6215C13.7412 11.458 13.8859 11.2845 13.9392 11.1016H15.367C15.1387 11.8101 14.7881 12.3163 14.3158 12.6208C13.8435 12.9254 13.2725 13.078 12.6022 13.078C12.1378 13.078 11.7187 13.0039 11.3458 12.8556C10.9728 12.7072 10.6567 12.4956 10.3975 12.2212C10.1383 11.9469 9.93818 11.62 9.79778 11.2392C9.65738 10.8583 9.58682 10.4392 9.58682 9.98276C9.58682 9.5414 9.65882 9.13028 9.80354 8.7494C9.94826 8.36852 10.1542 8.03948 10.4206 7.76156C10.687 7.48364 11.0052 7.26476 11.3746 7.10492C11.7439 6.94508 12.1536 6.86516 12.6029 6.86516C13.1055 6.86516 13.5432 6.96236 13.9169 7.15676C14.2899 7.35116 14.5966 7.6118 14.8363 7.9394C15.0761 8.267 15.2496 8.63996 15.3562 9.059C15.4627 9.47804 15.5009 9.9158 15.4707 10.373H11.2097C11.232 10.8964 11.3652 11.2773 11.6086 11.5128ZM13.4424 8.40596C13.248 8.19284 12.9528 8.08628 12.5568 8.08628C12.2976 8.08628 12.0823 8.1302 11.9117 8.21732C11.7403 8.30516 11.6035 8.41316 11.5006 8.54276C11.3976 8.67236 11.3256 8.80916 11.2839 8.95388C11.2421 9.0986 11.2169 9.2282 11.2097 9.34196H13.8485C13.7715 8.93156 13.6361 8.61908 13.4424 8.40596ZM10.9318 5.33588H14.2287V6.25028H10.9318V5.33588Z" fill="white"/>
</g>
<defs>
<clipPath id="clip0_968_41">
<rect width="18" height="18" fill="white"/>
</clipPath>
</defs>
</svg>
