<svg width="167" height="167" viewBox="0 0 167 167" fill="none" xmlns="http://www.w3.org/2000/svg">
<path d="M150.762 37.452C172.544 69.1919 169.333 112.925 141.129 141.129C109.301 172.957 57.6983 172.957 25.8706 141.129C-5.95685 109.301 -5.95685 57.6986 25.8706 25.8709C54.0553 -2.3138 97.7472 -5.53994 129.482 16.1925" stroke="#FA6350" stroke-width="3" stroke-miterlimit="10" stroke-linecap="round" stroke-linejoin="round"/>
<path d="M110.447 83.7336C105.773 83.7336 101.982 79.9435 101.982 75.2687V68.9648C101.982 64.2893 105.773 60.4995 110.447 60.4995C115.123 60.4995 118.913 64.2893 118.913 68.9648V75.2687C118.913 79.9435 115.123 83.7336 110.447 83.7336Z" stroke="#FA6350" stroke-width="3" stroke-miterlimit="10" stroke-linecap="round" stroke-linejoin="round"/>
<path d="M56.551 83.7337C51.876 83.7337 48.0859 79.9436 48.0859 75.2687V68.9649C48.0859 64.2894 51.876 60.4996 56.551 60.4996C61.226 60.4996 65.0161 64.2894 65.0161 68.9649V75.2687C65.0161 79.9436 61.226 83.7337 56.551 83.7337Z" stroke="#FA6350" stroke-width="3" stroke-miterlimit="10" stroke-linecap="round" stroke-linejoin="round"/>
<path d="M55.2461 121.533C70.8497 105.929 96.1482 105.929 111.752 121.533" stroke="#FA6350" stroke-width="3" stroke-miterlimit="10" stroke-linecap="round" stroke-linejoin="round"/>
<path d="M57.5461 38.8345C55.2823 44.3199 43.2909 50.5044 36.3584 47.6438" stroke="#FA6350" stroke-width="3" stroke-miterlimit="10" stroke-linecap="round" stroke-linejoin="round"/>
<path d="M109.453 38.8345C111.717 44.3199 123.708 50.5044 130.641 47.6438" stroke="#FA6350" stroke-width="3" stroke-miterlimit="10" stroke-linecap="round" stroke-linejoin="round"/>
</svg>
