<svg xmlns="http://www.w3.org/2000/svg" version="1.1" xmlns:xlink="http://www.w3.org/1999/xlink" xmlns:svgjs="http://svgjs.com/svgjs" width="512" height="512" x="0" y="0" viewBox="0 0 64 64" style="enable-background:new 0 0 512 512" xml:space="preserve" class=""><g><g id="memory"><path d="M44,9a5,5,0,1,0,5,5A5.006,5.006,0,0,0,44,9Zm0,8a3,3,0,1,1,3-3A3,3,0,0,1,44,17Z"  data-original="#000000" class=""></path><path d="M61.561,23.172a1,1,0,0,0-.933-.1l-5,2A1,1,0,0,0,55,26v1H54V22a1,1,0,0,0-1-1H49.644a9,9,0,1,0-11.288,0H22.948s7.826-9.208,7.837-9.223a6.007,6.007,0,0,0,.666-6.127,5.68,5.68,0,0,0-4.837-3.382c-.15-.01-.3-.016-.453-.016A6.575,6.575,0,0,0,21,4.741a6.575,6.575,0,0,0-5.161-2.489c-.152,0-.3.006-.451.016A5.681,5.681,0,0,0,10.549,5.65a6.025,6.025,0,0,0,.7,6.171L19.052,21H11a1,1,0,0,0-1,1v.78l-3.8-.76a.987.987,0,0,0-.83.207A1,1,0,0,0,5,23v5a1,1,0,0,0,1,1,.932.932,0,0,0,.2-.02l3.8-.76V42a1,1,0,0,0,1,1H21.3L12.114,60.536a1,1,0,0,0,1.772.928L23.555,43H31V61a1,1,0,0,0,2,0V43h7.445l9.669,18.464a1,1,0,1,0,1.772-.928L42.7,43H53a1,1,0,0,0,1-1V37h1v1a1,1,0,0,0,.628.929l5,2A1,1,0,0,0,62,40V24A1,1,0,0,0,61.561,23.172ZM12.369,6.479a3.711,3.711,0,0,1,3.155-2.216c.1-.007.209-.011.315-.011a4.581,4.581,0,0,1,4.238,2.826,1,1,0,0,0,1.846,0,4.583,4.583,0,0,1,4.555-2.815,3.711,3.711,0,0,1,3.153,2.216,4.012,4.012,0,0,1-.424,4.069L21,20.2l-8.191-9.635A4.01,4.01,0,0,1,12.369,6.479ZM37,14a7,7,0,1,1,7,7A7.008,7.008,0,0,1,37,14ZM7,26.78V24.22l3,.6v1.36ZM52,41H12V23H52Zm2-6V29h1v6Zm6,3.523-3-1.2V26.677l3-1.2Z"  data-original="#000000" class=""></path><path d="M40,26H17a1,1,0,0,0-1,1V37a1,1,0,0,0,1,1H40a1,1,0,0,0,1-1V27A1,1,0,0,0,40,26ZM39,36H18V28H39Z"  data-original="#000000" class=""></path><path d="M8,16H7a1,1,0,0,0,0,2H8v1a1,1,0,0,0,2,0V18h1a1,1,0,0,0,0-2H10V15a1,1,0,0,0-2,0Z"  data-original="#000000" class=""></path><path d="M56,17h1v1a1,1,0,0,0,2,0V17h1a1,1,0,0,0,0-2H59V14a1,1,0,0,0-2,0v1H56a1,1,0,0,0,0,2Z"  data-original="#000000" class=""></path><path d="M6,7V6H7A1,1,0,0,0,7,4H6V3A1,1,0,0,0,4,3V4H3A1,1,0,0,0,3,6H4V7A1,1,0,0,0,6,7Z"  data-original="#000000" class=""></path><path d="M57,6h1V7a1,1,0,0,0,2,0V6h1a1,1,0,0,0,0-2H60V3a1,1,0,0,0-2,0V4H57a1,1,0,0,0,0,2Z"  data-original="#000000" class=""></path><path d="M46,29a3,3,0,1,0,3,3A3,3,0,0,0,46,29Zm0,4a1,1,0,1,1,1-1A1,1,0,0,1,46,33Z"  data-original="#000000" class=""></path><path d="M48,26H44a1,1,0,0,0,0,2h4a1,1,0,0,0,0-2Z"  data-original="#000000" class=""></path><path d="M48,36H44a1,1,0,0,0,0,2h4a1,1,0,0,0,0-2Z"  data-original="#000000" class=""></path></g></g></svg>