<svg width="136" height="2" viewBox="0 0 136 2" fill="none" xmlns="http://www.w3.org/2000/svg">
<path d="M1 0.5C0.723858 0.5 0.5 0.723858 0.5 1C0.5 1.27614 0.723858 1.5 1 1.5V0.5ZM135 1.5C135.276 1.5 135.5 1.27614 135.5 1C135.5 0.723858 135.276 0.5 135 0.5V1.5ZM1 1.5H4.04545V0.5H1V1.5ZM10.1364 1.5H16.2273V0.5H10.1364V1.5ZM22.3182 1.5H28.4091V0.5H22.3182V1.5ZM34.5 1.5H40.5909V0.5H34.5V1.5ZM46.6818 1.5H52.7727V0.5H46.6818V1.5ZM58.8636 1.5H64.9545V0.5H58.8636V1.5ZM71.0454 1.5H77.1364V0.5H71.0454V1.5ZM83.2273 1.5H89.3182V0.5H83.2273V1.5ZM95.4091 1.5H101.5V0.5H95.4091V1.5ZM107.591 1.5H113.682V0.5H107.591V1.5ZM119.773 1.5H125.864V0.5H119.773V1.5ZM131.955 1.5H135V0.5H131.955V1.5Z" fill="white"/>
</svg>
