<svg xmlns="http://www.w3.org/2000/svg" version="1.1" xmlns:xlink="http://www.w3.org/1999/xlink" xmlns:svgjs="http://svgjs.com/svgjs" width="512" height="512" x="0" y="0" viewBox="0 0 512 512" style="enable-background:new 0 0 512 512" xml:space="preserve" class=""><g><path d="m495.018 201.85c4.143 0 7.5-3.358 7.5-7.5v-47.39c0-17.545-14.279-31.82-31.83-31.82h-44.25v-40.929c7.429-2.985 12.694-10.249 12.694-18.732v-12.034c0-23.956-19.489-43.445-43.445-43.445h-40.004c-23.955 0-43.443 19.489-43.443 43.445v12.034c0 8.482 5.263 15.747 12.689 18.732v40.929h-44.241c-17.551 0-31.83 14.274-31.83 31.82v67.079h-48.16v-12.452c0-18.705-15.218-33.922-33.923-33.922-18.704 0-33.922 15.217-33.922 33.922v12.452h-58.726c-15.87 0-28.781 12.911-28.781 28.78v94.515c0 4.142 3.357 7.5 7.5 7.5s7.5-3.358 7.5-7.5v-24.786c4.096 2.243 8.792 3.521 13.782 3.521h10.24v8.017c-7.11.66-12.697 6.654-12.697 13.934v7.663c0 7.72 6.28 14 14 14h38.073c7.72 0 14-6.28 14-14v-7.663c0-7.28-5.587-13.274-12.697-13.934v-8.017h83.456v8.017c-7.11.66-12.697 6.654-12.697 13.934v7.663c0 7.72 6.28 14 14 14h38.072c7.72 0 14-6.28 14-14v-7.663c0-7.28-5.586-13.273-12.696-13.934v-8.017h10.246c4.988 0 9.683-1.277 13.777-3.52v170.67c0 7.599-6.183 13.78-13.781 13.78h-185.298c-7.599 0-13.78-6.182-13.78-13.78v-110.704c0-4.142-3.357-7.5-7.5-7.5s-7.5 3.358-7.5 7.5v7.563h-7.083c-15.869 0-28.78 12.911-28.78 28.78v43.803c0 15.87 12.911 28.78 28.78 28.78h7.083v1.779c0 15.87 12.911 28.78 28.78 28.78h185.298c15.87 0 28.781-12.911 28.781-28.78v-1.779h6.162v9.269c0 11.331 9.219 20.55 20.551 20.55 11.331 0 20.55-9.219 20.55-20.55v-13.46h80.435v13.456c0 11.333 9.22 20.552 20.552 20.552 11.333 0 20.553-9.22 20.553-20.552v-13.456h13.681c17.551 0 31.83-14.274 31.83-31.82v-215.65c0-4.142-3.357-7.5-7.5-7.5s-7.5 3.358-7.5 7.5v215.65c0 9.274-7.55 16.82-16.83 16.82h-148.271c1.064-3.001 1.649-6.228 1.649-9.589v-43.803c0-8.473-3.683-16.101-9.529-21.373v-230.275c0-4.142-3.357-7.5-7.5-7.5s-7.5 3.358-7.5 7.5v223.184c-1.388-.206-2.807-.316-4.251-.316h-7.082v-137.259c0-14.363-10.575-26.3-24.348-28.438v-67.421c0-9.274 7.55-16.82 16.83-16.82h190c9.28 0 16.83 7.545 16.83 16.82v47.39c.001 4.142 3.358 7.5 7.501 7.5zm-456.755 264.591c-7.599 0-13.78-6.182-13.78-13.78v-43.803c0-7.599 6.182-13.78 13.78-13.78h7.083v71.363zm195.919-157.949c0 .026-.004.051-.004.077s.004.051.004.077v15.373h-10.679v-94.981h10.679zm-86.329-106.905c0-10.434 8.488-18.922 18.922-18.922 10.435 0 18.923 8.489 18.923 18.922v12.452h-37.845zm-37.806 122.434h-10.679v-94.981h10.679zm-35.919-22.951c-7.6 0-13.782-6.182-13.782-13.78v-44.471c0-7.599 6.183-13.78 13.781-13.78h10.241v72.031zm48.616 43.614h-36.073v-5.663h36.073zm2.303-43.614v-72.031h83.456v72.031zm121.831 43.614h-36.072v-5.663h36.072zm73.59 146.026c0 3.06-2.489 5.55-5.55 5.55s-5.551-2.49-5.551-5.55v-12.962c.289-.163.578-.325.861-.498h10.24zm121.539-.004c0 3.062-2.491 5.552-5.553 5.552s-5.552-2.491-5.552-5.552v-13.456h11.104v13.456zm-146.72-95.628c7.599 0 13.78 6.182 13.78 13.78v43.803c0 7.599-6.182 13.78-13.78 13.78h-7.082v-71.363zm-22.082-152.259v44.471c0 7.598-6.181 13.78-13.777 13.78h-10.246v-72.031h10.244c7.597 0 13.779 6.182 13.779 13.78zm54.034-199.374c0-15.685 12.76-28.445 28.443-28.445h40.004c15.685 0 28.445 12.761 28.445 28.445v12.034c0 2.863-2.33 5.192-5.194 5.192-2.863 0-5.193-2.329-5.193-5.192v-12.034c0-9.957-8.101-18.058-18.058-18.058h-40.004c-9.956 0-18.056 8.101-18.056 18.058v12.034c0 2.863-2.332 5.192-5.198 5.192-2.861 0-5.189-2.329-5.189-5.192zm12.69 30.767c7.431-2.985 12.698-10.249 12.698-18.733v-12.034c0-1.686 1.371-3.058 3.056-3.058h40.004c1.686 0 3.058 1.372 3.058 3.058v12.034c0 8.483 5.265 15.748 12.693 18.732v40.929h-71.509z" data-original="#000000" class=""></path><path d="m345.304 157.211v263.51c0 4.142 3.357 7.5 7.5 7.5s7.5-3.358 7.5-7.5v-263.51c0-4.142-3.357-7.5-7.5-7.5s-7.5 3.358-7.5 7.5z" data-original="#000000" class=""></path><path d="m391.067 157.211v263.51c0 4.142 3.357 7.5 7.5 7.5s7.5-3.358 7.5-7.5v-263.51c0-4.142-3.357-7.5-7.5-7.5s-7.5 3.358-7.5 7.5z" data-original="#000000" class=""></path><path d="m436.831 157.211v263.51c0 4.142 3.357 7.5 7.5 7.5s7.5-3.358 7.5-7.5v-263.51c0-4.142-3.357-7.5-7.5-7.5s-7.5 3.358-7.5 7.5z" data-original="#000000" class=""></path><path d="m228.875 470.021c10.003 0 18.141-8.138 18.141-18.14v-54.958c0-10.002-8.138-18.14-18.141-18.14h-124.201c-10.002 0-18.14 8.138-18.14 18.14v54.958c0 10.002 8.138 18.14 18.14 18.14zm-127.341-18.14v-54.958c0-1.731 1.408-3.14 3.14-3.14h124.201c1.731 0 3.141 1.409 3.141 3.14v54.958c0 1.731-1.409 3.14-3.141 3.14h-124.201c-1.732 0-3.14-1.409-3.14-3.14z" data-original="#000000" class=""></path></g></svg>