<svg width="170" height="41" viewBox="0 0 170 41" fill="none" xmlns="http://www.w3.org/2000/svg">
<ellipse cx="18.8729" cy="5.60523" rx="5.61085" ry="5.60523" fill="#008B5E"/>
<rect y="6.40921" width="10.1269" height="26.9277" rx="5.06345" fill="#008B5E"/>
<rect x="14.7301" y="14.7661" width="9.20628" height="25.9992" rx="4.60314" fill="#008B5E"/>
<rect x="27.6188" y="6.40921" width="10.1269" height="26.9277" rx="5.06345" fill="#008B5E"/>
<path d="M88.1771 34.5414H93.5329L102.174 15.7161H96.6035L90.7479 29.7108L85.1064 15.7161H79.5363L88.1771 34.5414Z" fill="white"/>
<path d="M124.378 21.3282C124.378 18.8774 124.093 15.0057 114.202 15.0057C108.596 15.0057 104.919 16.5331 104.205 21.4703H109.025C109.203 19.3746 110.953 18.3446 114.202 18.3446C117.059 18.3446 119.558 18.8774 119.558 21.044C119.558 22.5003 118.808 22.749 111.738 23.4238C108.596 23.708 103.241 24.1697 103.241 29.3556C103.241 33.0496 106.026 35.2518 110.953 35.2518C116.487 35.2518 118.88 33.5824 119.844 32.6589C119.986 33.3693 120.343 35.0742 123.557 35.0742C125.235 35.0742 126.092 34.8255 127.056 34.648V31.2026C126.663 31.2736 125.914 31.3091 125.449 31.3091C125.128 31.3091 124.378 31.2736 124.378 30.2435V21.3282ZM119.451 26.9758C119.451 31.1315 114.988 32.1261 112.345 32.1261C110.667 32.1261 108.382 31.6643 108.382 29.178C108.382 27.5796 109.275 26.7627 112.988 26.3364C116.487 25.9457 118.023 25.7681 119.451 25.1643V26.9758Z" fill="white"/>
<path d="M129.345 34.5414H134.272V8.75433H129.345V34.5414Z" fill="white"/>
<path d="M138.55 34.5414H143.478V8.75433H138.55V34.5414Z" fill="white"/>
<path d="M170 26.3719V25.6616C170 20.156 166.786 15.0057 158.396 15.0057C151.683 15.0057 147.006 19.0194 147.006 25.3064C147.006 30.3146 150.183 35.2518 158.717 35.2518C165.93 35.2518 168.5 31.096 169.572 29.0004H164.216C163.252 30.5632 161.823 31.6998 158.574 31.6998C153.683 31.6998 152.254 28.4676 152.147 26.3719H170ZM152.147 23.2462C152.968 19.4101 156.182 18.3446 158.467 18.3446C160.895 18.3446 164.251 19.4812 164.858 23.2462H152.147Z" fill="white"/>
<path d="M70.5964 12.1967L67.2644 5.09567L53.0481 34.8313H60.6005L70.5964 12.1967Z" fill="white"/>
<path d="M80.5923 34.3875L72.5956 17.0787L67.0424 29.9494L72.1514 30.1713L74.1505 34.3875H80.5923Z" fill="white"/>
</svg>
